<svg width="32" height="28" viewBox="0 0 32 28" fill="none" xmlns="http://www.w3.org/2000/svg">
<path d="M27.2071 4.06875C24.2143 1.44375 20.2286 0 15.9929 0C7.25 0 0.135714 6.225 0.135714 13.875C0.135714 16.3187 0.864286 18.7062 2.25 20.8125L0 28L8.40714 26.0688C10.7214 27.175 13.3286 27.7563 15.9857 27.7563H15.9929C24.7286 27.7563 32 21.5313 32 13.8813C32 10.175 30.2 6.69375 27.2071 4.06875ZM15.9929 25.4188C13.6214 25.4188 11.3 24.8625 9.27857 23.8125L8.8 23.5625L3.81429 24.7062L5.14286 20.45L4.82857 20.0125C3.50714 18.175 2.81429 16.0563 2.81429 13.875C2.81429 7.51875 8.72857 2.34375 16 2.34375C19.5214 2.34375 22.8286 3.54375 25.3143 5.725C27.8 7.90625 29.3286 10.8 29.3214 13.8813C29.3214 20.2438 23.2571 25.4188 15.9929 25.4188ZM23.2214 16.7812C22.8286 16.6063 20.8786 15.7687 20.5143 15.6562C20.15 15.5375 19.8857 15.4812 19.6214 15.8312C19.3571 16.1812 18.6 16.9563 18.3643 17.1938C18.1357 17.425 17.9 17.4562 17.5071 17.2812C15.1786 16.2625 13.65 15.4625 12.1143 13.1562C11.7071 12.5437 12.5214 12.5875 13.2786 11.2625C13.4071 11.0312 13.3429 10.8312 13.2429 10.6562C13.1429 10.4813 12.35 8.775 12.0214 8.08125C11.7 7.40625 11.3714 7.5 11.1286 7.4875C10.9 7.475 10.6357 7.475 10.3714 7.475C10.1071 7.475 9.67857 7.5625 9.31429 7.90625C8.95 8.25625 7.92857 9.09375 7.92857 10.8C7.92857 12.5063 9.35 14.1563 9.54286 14.3875C9.74286 14.6188 12.3357 18.1187 16.3143 19.625C18.8286 20.575 19.8143 20.6562 21.0714 20.4937C21.8357 20.3937 23.4143 19.6562 23.7429 18.8438C24.0714 18.0312 24.0714 17.3375 23.9714 17.1938C23.8786 17.0375 23.6143 16.95 23.2214 16.7812Z" fill="white"/>
</svg>
