<svg width="32" height="37" viewBox="0 0 32 37" fill="none" xmlns="http://www.w3.org/2000/svg">
<path d="M27.2071 6.93571C24.2143 3.93571 20.2286 2.28571 15.9929 2.28571C7.25 2.28571 0.135714 9.39999 0.135714 18.1428C0.135714 20.9357 0.864286 23.6643 2.25 26.0714L0 34.2857L8.40714 32.0786C10.7214 33.3429 13.3286 34.0071 15.9857 34.0071H15.9929C24.7286 34.0071 32 26.8929 32 18.15C32 13.9143 30.2 9.93571 27.2071 6.93571ZM15.9929 31.3357C13.6214 31.3357 11.3 30.7 9.27857 29.5L8.8 29.2143L3.81429 30.5214L5.14286 25.6571L4.82857 25.1571C3.50714 23.0571 2.81429 20.6357 2.81429 18.1428C2.81429 10.8786 8.72857 4.96428 16 4.96428C19.5214 4.96428 22.8286 6.33571 25.3143 8.82856C27.8 11.3214 29.3286 14.6286 29.3214 18.15C29.3214 25.4214 23.2571 31.3357 15.9929 31.3357ZM23.2214 21.4643C22.8286 21.2643 20.8786 20.3071 20.5143 20.1786C20.15 20.0428 19.8857 19.9786 19.6214 20.3786C19.3571 20.7786 18.6 21.6643 18.3643 21.9357C18.1357 22.2 17.9 22.2357 17.5071 22.0357C15.1786 20.8714 13.65 19.9571 12.1143 17.3214C11.7071 16.6214 12.5214 16.6714 13.2786 15.1571C13.4071 14.8928 13.3429 14.6643 13.2429 14.4643C13.1429 14.2643 12.35 12.3143 12.0214 11.5214C11.7 10.75 11.3714 10.8571 11.1286 10.8428C10.9 10.8286 10.6357 10.8286 10.3714 10.8286C10.1071 10.8286 9.67857 10.9286 9.31429 11.3214C8.95 11.7214 7.92857 12.6786 7.92857 14.6286C7.92857 16.5786 9.35 18.4643 9.54286 18.7286C9.74286 18.9929 12.3357 22.9928 16.3143 24.7143C18.8286 25.8 19.8143 25.8928 21.0714 25.7071C21.8357 25.5928 23.4143 24.75 23.7429 23.8214C24.0714 22.8928 24.0714 22.1 23.9714 21.9357C23.8786 21.7571 23.6143 21.6571 23.2214 21.4643Z" fill="url(#paint0_linear_294_11)"/>
<defs>
<linearGradient id="paint0_linear_294_11" x1="16" y1="2.28571" x2="16" y2="34.2857" gradientUnits="userSpaceOnUse">
<stop stop-color="#FFBF00"/>
<stop offset="1" stop-color="#F2A50C"/>
</linearGradient>
</defs>
</svg>
