<svg width="64" height="64" viewBox="0 0 64 64" fill="none" xmlns="http://www.w3.org/2000/svg">
<g clip-path="url(#clip0_92_359)">
<path d="M55.4665 29.8666H51.1998C48.8531 29.8666 46.9331 31.7866 46.9331 34.1333C46.9331 36.48 48.8531 38.4 51.1998 38.4H52.1634C51.7404 40.5561 50.0537 42.2087 47.8792 42.5844C47.3657 40.1666 45.2575 38.4 42.6666 38.4H33.0666V37.3334H45.8665V26.6668C45.8665 21.9735 42.0266 18.1334 37.3331 18.1334H33.0665V16H40.5331V10.6666C40.5331 6.33459 37.2608 2.73229 33.0665 2.20286V1.06661C33.0665 0.426618 32.6398 0 31.9998 0C31.3599 0 30.9332 0.426618 30.9332 1.06661V2.20286C26.7389 2.73229 23.4666 6.33459 23.4666 10.6666V15.9999H30.9332V18.1333H26.6665C21.9732 18.1333 18.1332 21.9732 18.1332 26.6666V37.3332H30.9332V38.3998H21.3332C18.7423 38.3998 16.634 40.1664 16.1207 42.5843C13.9461 42.2085 12.2594 40.5559 11.8364 38.3998H12.8C15.1467 38.3998 17.0667 36.4799 17.0667 34.1332C17.0667 31.7864 15.1467 29.8665 12.8 29.8665H8.53329C6.18658 29.8665 4.2666 31.7864 4.2666 34.1332C4.2666 36.4799 6.18658 38.3998 8.53329 38.3998H9.67526C10.1403 41.7266 12.7517 44.3106 16.092 44.7361C16.55 47.2286 18.6904 49.0666 21.3332 49.0666H28.7999V51.1999H27.7333V57.3985C26.1189 58.3381 24.9476 59.9623 24.6246 61.8667H18.1333C17.4933 61.8667 17.0667 62.2933 17.0667 62.9333C17.0667 63.5733 17.4933 63.9999 18.1333 63.9999H24.5333H39.4666H45.8667C46.5067 63.9999 46.9333 63.5733 46.9333 62.9333C46.9333 62.2933 46.5067 61.8667 45.8667 61.8667H39.3754C39.0523 59.9623 37.881 58.3382 36.2667 57.3985V51.1999H35.2001V49.0666H42.6667C45.3095 49.0666 47.4499 47.2286 47.908 44.7361C51.2483 44.3106 53.8597 41.7266 54.3247 38.3998H55.4667C57.8134 38.3998 59.7333 36.4799 59.7333 34.1332C59.7332 31.7867 57.8132 29.8666 55.4665 29.8666ZM25.5999 10.6666C25.5999 7.14665 28.4799 4.26657 32 4.26657C35.5201 4.26657 38.4 7.14652 38.4 10.6666V13.8666H25.5999V10.6666ZM20.2665 26.6666C20.2665 23.1467 23.1465 20.2666 26.6665 20.2666H37.3331C40.8531 20.2666 43.7332 23.1466 43.7332 26.6666V35.2H20.2665V26.6666ZM6.39995 34.1333C6.39995 32.9599 7.35993 31.9999 8.53329 31.9999H12.8C13.9733 31.9999 14.9333 32.9599 14.9333 34.1333C14.9333 35.3066 13.9733 36.2666 12.8 36.2666H8.53329C7.35993 36.2666 6.39995 35.3066 6.39995 34.1333ZM26.7732 61.8667C27.3065 60.0533 28.9065 58.6667 30.8265 58.6667H32.9598C34.9866 58.6667 36.6932 60.0533 37.1198 61.8667H26.7732ZM30.9332 56.5332H29.8666V53.3333H34.1333V56.5332H33.0667H30.9332ZM33.0666 51.1999H30.9332V49.0666H33.0666V51.1999ZM42.6666 46.9332H35.1999H28.7999H21.3332C19.5199 46.9332 18.1333 45.5466 18.1333 43.7333C18.1333 41.9199 19.5199 40.5333 21.3332 40.5333H42.6666C44.4799 40.5333 45.8665 41.9199 45.8665 43.7333C45.8665 45.5466 44.4799 46.9332 42.6666 46.9332ZM55.4665 36.2666H51.1998C50.0265 36.2666 49.0665 35.3066 49.0665 34.1333C49.0665 32.9599 50.0265 31.9999 51.1998 31.9999H55.4665C56.6399 31.9999 57.5999 32.9599 57.5999 34.1333C57.5999 35.3066 56.6399 36.2666 55.4665 36.2666Z" fill="#CAA572"/>
</g>
<defs>
<clipPath id="clip0_92_359">
<rect width="64" height="64" fill="white"/>
</clipPath>
</defs>
</svg>
