<svg width="64" height="64" viewBox="0 0 64 64" fill="none" xmlns="http://www.w3.org/2000/svg">
<g clip-path="url(#clip0_92_295)">
<path d="M8.54719 51.026C6.20229 51.026 4.28369 52.9446 4.28369 55.2895C4.28369 57.6344 6.20229 59.553 8.54719 59.553C10.8921 59.553 12.8107 57.6344 12.8107 55.2895C12.8107 52.9446 10.8921 51.026 8.54719 51.026ZM8.54719 57.4213C7.37468 57.4213 6.41538 56.462 6.41538 55.2895C6.41538 54.117 7.37468 53.1577 8.54719 53.1577C9.71971 53.1577 10.679 54.117 10.679 55.2895C10.679 56.462 9.71971 57.4213 8.54719 57.4213Z" fill="#CAA572"/>
<path d="M61.8416 46.3362L31.2953 15.7899C31.7383 15.4197 32.0622 14.9966 32.3165 14.5727L33.1692 13.0804C33.9153 11.8013 34.1285 10.3091 33.5955 9.03C32.7428 7.00486 30.5044 5.83234 27.52 5.72579C25.822 5.6551 23.9842 5.962 22.3162 6.58017C22.3037 6.51372 22.2971 6.44277 22.2971 6.36532C22.2971 6.04556 22.4036 5.83234 22.6168 5.72579C23.2564 5.08626 23.5761 4.23351 23.5761 3.38089C23.5761 2.42159 23.1498 1.67551 22.5103 1.03598C21.8707 0.396446 21.1247 0.183228 20.2719 0.183228C19.3126 0.289774 18.4599 0.60954 17.8203 1.35574C15.6203 3.74724 15.3102 7.16836 16.8103 9.92522C6.87648 17.5344 -2.61794 33.6543 0.659657 56.995C0.979423 59.1268 2.04527 60.9387 3.75077 62.2178C5.13638 63.2836 6.73521 63.8166 8.44071 63.8166C8.76047 63.8166 9.08024 63.8166 9.61322 63.7101C11.745 63.3903 13.557 62.3245 14.836 60.619C16.1151 58.9135 16.6481 56.8883 16.3283 54.7566C14.7698 44.0302 18.2581 29.2825 26.5216 20.0762L33.9154 27.47L31.9108 29.4746C31.789 29.5279 31.6734 29.6054 31.5705 29.7084C31.4676 29.8113 31.39 29.9268 31.3368 30.0486L27.8399 33.5455L56.5122 62.1112L61.8417 56.8884C64.7195 54.0106 64.7195 49.2141 61.8416 46.3362ZM18.5665 8.60381C17.6072 6.68521 17.927 4.34031 19.4193 2.74148C19.6325 2.52826 19.9523 2.31517 20.3786 2.31517C20.5918 2.31517 20.8049 2.42171 21.0181 2.63493C21.2313 2.84815 21.3379 3.06124 21.3379 3.38101C21.3379 3.59423 21.2313 3.914 21.1247 4.02054C20.4851 4.66007 20.1654 5.40615 20.1654 6.2589C20.1654 6.68522 20.2719 7.00498 20.3786 7.43142C20.272 7.53797 20.0588 7.64464 19.9523 7.75118L18.993 8.39072C18.7798 8.39059 18.6732 8.49714 18.5665 8.60381ZM14.0898 55.0764C14.303 56.5687 13.9833 58.1675 13.024 59.3399C12.0647 60.619 10.6791 61.365 9.18679 61.5783C7.6945 61.7915 6.09568 61.4717 4.92328 60.5124C3.64422 59.5531 2.89814 58.1675 2.68492 56.6752C-0.394946 34.3222 8.56312 18.823 17.9936 11.6415L18.0337 11.6948L18.8864 11.0553C19.3127 10.7355 19.7392 10.5223 20.1655 10.2025L21.1248 9.56298C21.4446 9.34976 21.8709 9.13667 22.4039 8.92345L23.3023 8.50875C24.555 8.09106 25.916 7.85748 27.2003 7.85748H27.3069C28.3727 7.96403 30.8243 8.17725 31.4638 9.88262C31.6771 10.5222 31.5704 11.2682 31.1441 12.0144L30.2913 13.5067C30.1848 13.8265 29.865 14.1462 29.5453 14.3595C17.6072 23.0998 12.2779 41.966 14.0898 55.0764ZM56.4056 59.1268L30.8243 33.5455L32.3427 31.9729L57.9511 57.5813L56.4056 59.1268ZM60.1361 55.3962L59.4432 56.089L58.6438 55.2896V50.9194C58.6438 50.2799 58.2175 49.8536 57.578 49.8536C56.9384 49.8536 56.5121 50.2799 56.5121 50.9194V53.1578L54.3803 51.026V46.5493C54.3803 45.9097 53.954 45.4834 53.3145 45.4834C52.6749 45.4834 52.2486 45.9097 52.2486 46.5493V48.8942L50.1168 46.7624V42.2856C50.1168 41.6461 49.6905 41.2198 49.051 41.2198C48.4114 41.2198 47.9851 41.6461 47.9851 42.2856V44.6305L45.8533 42.4987V38.022C45.8533 37.3825 45.427 36.9562 44.7875 36.9562C44.1479 36.9562 43.7216 37.3825 43.7216 38.022V40.3669L33.8089 30.4542L36.7933 27.3631L27.985 18.5548C28.4926 18.0625 29.0165 17.591 29.5556 17.1409L60.1361 47.828C62.1614 49.9601 62.1614 53.371 60.1361 55.3962Z" fill="#CAA572"/>
<path d="M27.7333 13.1871C27.7333 11.1619 26.0279 9.45642 24.0026 9.45642C21.9773 9.45642 20.272 11.1618 20.272 13.1871C20.272 15.2122 21.9773 16.9177 24.0026 16.9177C26.0279 16.9177 27.7333 15.2122 27.7333 13.1871ZM24.0026 14.7859C23.1499 14.7859 22.4038 14.0398 22.4038 13.1871C22.4038 12.3343 23.1499 11.5882 24.0026 11.5882C24.8554 11.5882 25.6014 12.3343 25.6014 13.1871C25.6014 14.0398 24.8554 14.7859 24.0026 14.7859Z" fill="#CAA572"/>
</g>
<defs>
<clipPath id="clip0_92_295">
<rect width="64" height="64" fill="white"/>
</clipPath>
</defs>
</svg>
