<svg width="152" height="52" viewBox="0 0 152 52" fill="none" xmlns="http://www.w3.org/2000/svg">
<path fill-rule="evenodd" clip-rule="evenodd" d="M101.716 24.5134C96.9409 29.5238 93.3131 28.1534 87.3576 22.5894C82.4298 17.992 78.383 20.8153 77.4042 24.7765C76.4131 20.8092 72.3633 17.992 67.4386 22.5986C61.4953 28.1687 57.8675 29.5452 53.0896 24.544C52.6155 29.5788 57.7207 34.2955 64.4837 35.0694C70.7513 35.7852 76.248 32.8701 77.4073 28.4379C78.5788 32.8763 84.0724 35.7821 90.343 35.0541C97.1 34.268 102.196 29.5513 101.716 24.5134Z" fill="#FFE9DC"/>
<line x1="152" y1="28.5" x2="112" y2="28.5" stroke="#FFE9DC"/>
<line x1="40" y1="28.5" x2="-4.37114e-08" y2="28.5" stroke="#FFE9DC"/>
</svg>
