<svg width="20" height="20" viewBox="0 0 20 20" fill="none" xmlns="http://www.w3.org/2000/svg">
<path d="M16.667 1.33301H3.33299C2.41699 1.33301 1.67499 2.08301 1.67499 3.00001L1.66699 13C1.66699 13.917 2.41699 14.667 3.33299 14.667H16.667C17.583 14.667 18.333 13.917 18.333 13V3.00001C18.333 2.08301 17.583 1.33301 16.667 1.33301ZM16.333 4.87501L10.442 8.55901C10.3091 8.64084 10.1561 8.68417 9.99999 8.68417C9.84391 8.68417 9.6909 8.64084 9.55799 8.55901L3.66699 4.87501C3.5846 4.82751 3.51261 4.76391 3.45534 4.68798C3.39807 4.61206 3.35668 4.52537 3.33364 4.4331C3.3106 4.34083 3.30639 4.24486 3.32126 4.15093C3.33613 4.057 3.36977 3.96702 3.42017 3.88637C3.47058 3.80572 3.53671 3.73606 3.61464 3.68153C3.69256 3.627 3.78066 3.58874 3.8737 3.56901C3.96673 3.54928 4.06279 3.5485 4.15613 3.56671C4.24948 3.58492 4.3382 3.62176 4.41699 3.67501L9.99999 7.16701L15.583 3.67501C15.6618 3.62176 15.7505 3.58492 15.8439 3.56671C15.9372 3.5485 16.0332 3.54928 16.1263 3.56901C16.2193 3.58874 16.3074 3.627 16.3853 3.68153C16.4633 3.73606 16.5294 3.80572 16.5798 3.88637C16.6302 3.96702 16.6639 4.057 16.6787 4.15093C16.6936 4.24486 16.6894 4.34083 16.6663 4.4331C16.6433 4.52537 16.6019 4.61206 16.5446 4.68798C16.4874 4.76391 16.4154 4.82751 16.333 4.87501Z" fill="url(#paint0_linear_99_204)"/>
<defs>
<linearGradient id="paint0_linear_99_204" x1="9.99999" y1="1.33301" x2="9.99999" y2="14.667" gradientUnits="userSpaceOnUse">
<stop stop-color="#FABB24"/>
<stop offset="1" stop-color="#EEA800"/>
</linearGradient>
</defs>
</svg>
