<svg width="64" height="64" viewBox="0 0 64 64" fill="none" xmlns="http://www.w3.org/2000/svg">
<g clip-path="url(#clip0_92_304)">
<path d="M51.5526 23.1853C52.5142 22.2236 52.8347 20.8347 52.5142 19.5526C52.1936 18.3772 51.3388 17.4156 50.0567 17.0951H49.9499C49.4156 16.8814 48.9883 16.5608 48.8815 16.0267C48.7747 15.4926 48.8815 14.9583 49.3088 14.6378L49.4156 14.531C50.6978 13.3556 50.9115 11.6462 50.0567 10.1503C49.2019 8.76135 47.5992 8.12028 45.9965 8.54762H45.8897C45.3555 8.76135 44.8213 8.54762 44.5008 8.22708C44.1803 7.90655 44.0735 7.37228 44.1803 6.83814V6.73121C44.7145 5.12854 44.0735 3.52587 42.5776 2.67108C41.0817 1.81628 39.3723 2.13681 38.1969 3.31214L38.0901 3.41895C37.7696 3.84628 37.2353 3.95321 36.7012 3.84628C36.167 3.73935 35.7396 3.31202 35.6328 2.77788V2.67108C35.2053 1.06841 33.8164 0 32.1069 0C30.5042 0 29.0084 1.06841 28.6878 2.778V2.88481C28.4741 3.41907 28.1536 3.84641 27.6194 3.95321C27.0853 4.06001 26.551 3.95321 26.2305 3.52587L26.1237 3.41907C24.9484 2.13694 23.2389 1.9232 21.743 2.778C20.3541 3.6328 19.713 5.23547 20.1403 6.83814V6.94495C20.2471 7.47921 20.0335 8.12028 19.713 8.44081C19.3925 8.76135 18.8582 8.86815 18.3241 8.76135H18.2173C16.6146 8.22708 15.0119 8.86815 14.1571 10.364C13.3023 11.8599 13.5161 13.5694 14.5845 14.7447L14.6913 14.8515C15.1186 15.172 15.2255 15.7063 15.1186 16.2404C15.0118 16.7747 14.5843 17.202 14.0502 17.3088H13.9434C12.7681 17.6294 11.8065 18.4842 11.4859 19.7663C11.1654 21.0484 11.4859 22.4374 12.4475 23.399L24.6278 35.5793V37.2887H23.5594C21.743 37.2887 20.3541 38.6777 20.3541 40.4941C20.3541 42.3105 21.743 43.6994 23.5594 43.6994H24.5948C24.452 44.8562 23.8469 45.8414 22.9183 46.5842C21.3157 47.7596 20.3541 49.6828 20.3541 51.7128V54.8113C20.3541 59.8331 24.521 64 29.5428 64H34.6713C39.7998 64 43.86 59.9399 43.86 54.8113V51.7128C43.86 49.6828 42.8984 47.7596 41.2957 46.5842C40.3672 45.8414 39.762 44.8562 39.6193 43.6994H40.6546C42.471 43.6994 43.86 42.3105 43.86 40.4941C43.86 38.6777 42.471 37.2887 40.6546 37.2887H39.5862V35.5575L51.5526 23.1853ZM13.6227 20.4074C13.6227 20.1936 13.8365 19.6595 14.5843 19.4458H14.6911C15.9733 19.1252 16.9349 18.1636 17.2554 16.8815C17.5759 15.5994 17.2554 14.3172 16.2938 13.3556L16.187 13.2488C15.6527 12.6078 15.6527 11.9667 15.9733 11.5394C16.187 11.112 16.7211 10.6846 17.5759 10.8983H17.6827C18.9649 11.2188 20.247 10.8983 21.2086 9.93668C22.1702 8.97508 22.4908 7.69294 22.1702 6.41081V6.304C21.8497 5.4492 22.277 4.91506 22.8113 4.59453C23.2386 4.3808 23.9866 4.274 24.5208 4.91506L24.6276 5.02187C25.5892 5.98347 26.8713 6.304 28.1534 5.98347C29.4356 5.66293 30.3972 4.70133 30.7177 3.4192V3.31239C30.9314 2.56452 31.5725 2.24399 32.1067 2.24399C32.6409 2.24399 33.282 2.45772 33.4956 3.31239V3.4192C33.8161 4.70133 34.7777 5.66293 36.0599 5.98347C37.342 6.304 38.6241 5.98347 39.5857 5.02187L39.6925 4.91506C40.2268 4.274 40.9747 4.3808 41.5089 4.59453C41.9363 4.80826 42.3637 5.44933 42.15 6.1972V6.304C41.8295 7.58614 42.15 8.86828 43.1116 9.82988C44.0732 10.7915 45.3554 11.112 46.6375 10.7915H46.7443C47.4922 10.5777 48.0264 11.0052 48.347 11.4325C48.6675 11.9668 48.7743 12.7147 48.1332 13.2489L48.0264 13.3558C47.0648 14.3174 46.7443 15.5995 47.0648 16.8816C47.3854 18.1638 48.347 19.1254 49.6291 19.4459H49.7359C50.377 19.5527 50.5907 20.1938 50.6975 20.4075C50.8043 20.8348 50.6975 21.4759 50.2702 21.9034L38.0899 34.0837H26.1236L14.0501 21.9034C13.5159 21.4758 13.5159 20.8347 13.6227 20.4074ZM40.0133 48.2938C41.0817 49.1486 41.7228 50.3238 41.7228 51.7129V54.8114C41.7228 58.6578 38.5175 61.8632 34.6711 61.8632H29.5425C25.6961 61.8632 22.4908 58.6578 22.4908 54.8114V51.7129C22.4908 50.324 23.1318 49.1486 24.2002 48.2938C25.6961 47.2254 26.6577 45.5158 26.7645 43.6996H37.4489C37.6628 45.5158 38.5176 47.2253 40.0133 48.2938ZM40.6544 39.4257C41.2955 39.4257 41.7228 39.853 41.7228 40.4941C41.7228 41.1352 41.2955 41.5625 40.6544 41.5625H39.586H24.6277H23.5593C22.9182 41.5625 22.4909 41.1352 22.4909 40.4941C22.4909 39.853 22.9182 39.4257 23.5593 39.4257H24.6277H39.586H40.6544ZM26.7646 37.2887V36.2203H37.4491V37.2887H26.7646Z" fill="#CAA572"/>
<path d="M35.7396 24.2538C35.9533 24.3606 36.167 24.4676 36.3807 24.4676C36.7012 24.4676 37.1286 24.3608 37.2355 23.9333L41.5092 17.5226C41.8298 16.9883 41.723 16.3473 41.1887 16.0267C40.6544 15.7062 40.0134 15.813 39.6928 16.3473L35.4191 22.758C35.0985 23.2922 35.2053 23.9333 35.7396 24.2538Z" fill="#CAA572"/>
<path d="M32.107 19.1252C32.748 19.1252 33.1754 18.6979 33.1754 18.0568V7.37224C33.1754 6.73117 32.748 6.30383 32.107 6.30383C31.4659 6.30383 31.0386 6.73117 31.0386 7.37224V18.0567C31.0384 18.6977 31.4659 19.1252 32.107 19.1252Z" fill="#CAA572"/>
<path d="M34.5642 31.6261C34.7779 31.8398 34.9915 31.9467 35.312 31.9467C35.6326 31.9467 35.8463 31.8398 36.0599 31.6261L44.6075 23.0785C45.0349 22.6512 45.0349 22.0101 44.6075 21.5826C44.1802 21.1552 43.5391 21.1553 43.1117 21.5826L34.564 30.1302C34.1368 30.5576 34.1368 31.1987 34.5642 31.6261Z" fill="#CAA572"/>
<path d="M26.9785 24.0401C27.1922 24.2538 27.5127 24.4674 27.8333 24.4674C28.047 24.4674 28.2606 24.4674 28.4743 24.3606C29.0086 24.0401 29.1154 23.399 28.7949 22.8648L24.5211 16.4541C24.2006 15.9198 23.5595 15.813 23.0253 16.1336C22.491 16.4541 22.3842 17.0952 22.7047 17.6294L26.9785 24.0401Z" fill="#CAA572"/>
<path d="M31.1453 26.9248C31.2375 27.2934 31.5681 27.582 31.9315 27.6545C31.99 27.6721 32.0484 27.6727 32.1069 27.6727C32.1526 27.6727 32.1988 27.6722 32.2529 27.6638C32.629 27.6193 32.9861 27.398 33.1754 26.9248L38.5177 11.9665C38.7314 11.4322 38.4109 10.7912 37.8766 10.5776C37.3424 10.364 36.7013 10.6844 36.4877 11.2186L32.1605 23.3348L27.833 11.2186C27.6193 10.6844 26.9782 10.3638 26.4441 10.5776C25.91 10.7913 25.5893 11.4324 25.803 11.9665L31.1453 26.9248Z" fill="#CAA572"/>
<path d="M28.9016 31.9466C29.2221 31.9466 29.4358 31.8398 29.6494 31.6261C30.0768 31.1987 30.0768 30.5577 29.6494 30.1302L21.1018 21.5826C20.6745 21.1553 20.0334 21.1553 19.606 21.5826C19.1785 22.0099 19.1786 22.651 19.606 23.0785L28.1536 31.6261C28.3673 31.8397 28.581 31.9466 28.9016 31.9466Z" fill="#CAA572"/>
</g>
<defs>
<clipPath id="clip0_92_304">
<rect width="64" height="64" fill="white"/>
</clipPath>
</defs>
</svg>
