<svg width="64" height="64" viewBox="0 0 64 64" fill="none" xmlns="http://www.w3.org/2000/svg">
<path d="M64 19.2H56.5334V11.7334H7.46663V19.2H0V44.8H7.46663V52.2666H56.5332V44.8H64V19.2ZM9.6 13.8666H54.4V19.2H9.6V13.8666ZM54.4 50.1334H9.6V44.8H54.4V50.1334ZM61.8666 42.6666H2.13337V21.3334H7.46675H56.5334H61.8667V42.6666H61.8666Z" fill="#CAA572"/>
<path d="M56.5335 30.9334H52.1636C51.6811 28.4733 49.5539 26.6668 46.9335 26.6668C44.3131 26.6668 42.1859 28.4733 41.7034 30.9334H36.1309C35.6541 29.0986 33.9789 27.7334 32.0001 27.7334C30.0215 27.7334 28.3461 29.0986 27.8694 30.9334H22.2969C21.8144 28.4733 19.6871 26.6668 17.0667 26.6668C14.4464 26.6668 12.3191 28.4733 11.8366 30.9334H7.46675V25.6001C7.46675 24.9601 7.04012 24.5334 6.40012 24.5334C5.76012 24.5334 5.3335 24.9601 5.3335 25.6001V38.4001C5.3335 39.0401 5.76012 39.4667 6.40012 39.4667C7.04012 39.4667 7.46675 39.0401 7.46675 38.4001V33.0667H11.8366C12.3191 35.5268 14.4464 37.3333 17.0667 37.3333C19.6871 37.3333 21.8144 35.5268 22.2969 33.0667H27.8694C28.3461 34.9016 30.0214 36.2667 32.0001 36.2667C33.9789 36.2667 35.6541 34.9016 36.1309 33.0667H41.7034C42.1859 35.5268 44.3131 37.3333 46.9335 37.3333C49.5539 37.3333 51.6811 35.5268 52.1636 33.0667H56.5335V38.4001C56.5335 39.0401 56.9601 39.4667 57.6001 39.4667C58.2401 39.4667 58.6667 39.0401 58.6667 38.4001V25.6001C58.6667 24.9601 58.2401 24.5334 57.6001 24.5334C56.9601 24.5334 56.5335 24.9601 56.5335 25.6001V30.9334ZM17.0667 35.2001C15.2534 35.2001 13.8667 33.8134 13.8667 32.0001C13.8667 30.1867 15.2534 28.8001 17.0667 28.8001C18.8801 28.8001 20.2667 30.1867 20.2667 32.0001C20.2667 33.8134 18.8801 35.2001 17.0667 35.2001ZM32.0001 34.1334C30.8267 34.1334 29.8667 33.1734 29.8667 32.0001C29.8667 30.8267 30.8267 29.8667 32.0001 29.8667C33.1735 29.8667 34.1335 30.8267 34.1335 32.0001C34.1335 33.1734 33.1735 34.1334 32.0001 34.1334ZM46.9335 35.2001C45.1201 35.2001 43.7335 33.8134 43.7335 32.0001C43.7335 30.1867 45.1201 28.8001 46.9335 28.8001C48.7469 28.8001 50.1335 30.1867 50.1335 32.0001C50.1335 33.8134 48.7467 35.2001 46.9335 35.2001Z" fill="#CAA572"/>
</svg>
