<svg width="64" height="64" viewBox="0 0 64 64" fill="none" xmlns="http://www.w3.org/2000/svg">
<g clip-path="url(#clip0_92_269)">
<path d="M32.0726 57.3905C32.7918 57.3905 33.3748 56.8075 33.3748 56.0884C33.3748 55.3692 32.7918 54.7863 32.0726 54.7863C31.3535 54.7863 30.7705 55.3692 30.7705 56.0884C30.7705 56.8075 31.3535 57.3905 32.0726 57.3905Z" fill="#CAA572"/>
<path d="M33.1239 40.4901C33.1134 39.8917 32.6249 39.4141 32.029 39.4141C32.0224 39.4141 32.0158 39.4141 32.0092 39.4142C31.4042 39.4248 30.9225 39.9239 30.9333 40.5289L31.0228 45.5926C31.0333 46.1908 31.5218 46.6686 32.1177 46.6686C32.1243 46.6686 32.1309 46.6686 32.1375 46.6684C32.7425 46.6578 33.2242 46.1587 33.2134 45.5537L33.1239 40.4901Z" fill="#CAA572"/>
<path d="M45.5839 0C44.9788 0 44.4884 0.490375 44.4884 1.0955V5.23387H42.7983V1.0955C42.7983 0.490375 42.3079 0 41.7028 0C41.0977 0 40.6073 0.490375 40.6073 1.0955V5.23387H38.9171V1.0955C38.9171 0.490375 38.4267 0 37.8216 0C37.2164 0 36.7261 0.490375 36.7261 1.0955V5.23387H35.0359V1.0955C35.0359 0.490375 34.5456 0 33.9404 0C33.3353 0 32.8449 0.490375 32.8449 1.0955V5.23387H31.1547V1.0955C31.1547 0.490375 30.6643 0 30.0592 0C29.4541 0 28.9637 0.490375 28.9637 1.0955V5.23387H27.2736V1.0955C27.2736 0.490375 26.7832 0 26.1781 0C25.5729 0 25.0826 0.490375 25.0826 1.0955V5.23387H23.3924V1.0955C23.3924 0.490375 22.9021 0 22.2969 0C21.6918 0 21.2014 0.490375 21.2014 1.0955V5.23387H19.5113V1.0955C19.5113 0.490375 19.0209 0 18.4158 0C17.8107 0 17.3203 0.490375 17.3203 1.0955V6.32937V18.2349C17.3203 21.4391 19.6557 24.1066 22.7134 24.629V54.6465C22.7134 59.8041 26.9096 64.0001 32.0671 64.0001C37.2248 64.0001 41.4208 59.804 41.4208 54.6465V24.6046C44.4122 24.028 46.6791 21.3916 46.6791 18.2346V6.32937V1.0955C46.6794 0.490375 46.1891 0 45.5839 0ZM44.4884 18.2349C44.4884 20.6046 42.5606 22.5324 40.1908 22.5324H28.7866C28.1814 22.5324 27.6911 23.0227 27.6911 23.6279C27.6911 24.233 28.1814 24.7234 28.7866 24.7234H39.2301V54.6465C39.2301 58.596 36.0168 61.8091 32.0673 61.8091C28.1178 61.8091 24.9047 58.596 24.9047 54.6465V23.6278C24.9047 23.0226 24.4143 22.5322 23.8092 22.5322C21.4394 22.5322 19.5116 20.6045 19.5116 18.2348V7.42475H44.4884V18.2349Z" fill="#CAA572"/>
<path d="M37.9543 9.97803H25.6811C24.2896 9.97803 23.1572 11.1102 23.1572 12.5017V16.1993C23.1572 17.591 24.2895 18.7232 25.6811 18.7232H37.9543C39.3458 18.7232 40.4782 17.591 40.4782 16.1993V12.5018C40.4781 11.1102 39.3458 9.97803 37.9543 9.97803ZM38.2872 16.1995C38.2872 16.3832 38.138 16.5324 37.9543 16.5324H25.6811C25.4975 16.5324 25.3482 16.3832 25.3482 16.1995V12.5019C25.3482 12.3184 25.4975 12.1692 25.6811 12.1692H37.9543C38.138 12.1692 38.2872 12.3184 38.2872 12.5019V16.1995Z" fill="#CAA572"/>
<path d="M32.0733 31.7217C29.6572 31.7217 27.6914 33.6874 27.6914 36.1036V45.8898C27.6914 48.3059 29.6572 50.2717 32.0733 50.2717C34.4894 50.2717 36.4552 48.3059 36.4552 45.8898V36.1036C36.4552 33.6874 34.4895 31.7217 32.0733 31.7217ZM34.2643 45.8898C34.2643 47.0979 33.2814 48.0808 32.0733 48.0808C30.8652 48.0808 29.8823 47.0979 29.8823 45.8898V36.1036C29.8823 34.8954 30.8652 33.9126 32.0733 33.9126C33.2814 33.9126 34.2643 34.8954 34.2643 36.1036V45.8898Z" fill="#CAA572"/>
</g>
<defs>
<clipPath id="clip0_92_269">
<rect width="64" height="64" fill="white"/>
</clipPath>
</defs>
</svg>
