<svg width="64" height="64" viewBox="0 0 64 64" fill="none" xmlns="http://www.w3.org/2000/svg">
<g clip-path="url(#clip0_92_317)">
<path d="M62.3256 13.9962L58.8563 10.5271L39.7162 29.6672H29.6676V39.7158L10.5273 58.8561L13.9965 62.3252C15.0731 63.4018 16.5086 64 18.0638 64C19.6189 64 21.0545 63.4018 22.1311 62.3252L62.3254 22.1308C63.402 21.0542 64.0002 19.6187 64.0002 18.0635C64.0002 16.5084 63.4022 15.073 62.3256 13.9962ZM60.5311 20.456L20.4563 60.5309C19.1404 61.8468 16.9871 61.8468 15.6713 60.5309L13.8768 58.7364L31.9404 40.6729V32.0599H40.5534L58.7366 13.8767L60.531 15.6711C61.1292 16.2693 61.488 17.1067 61.488 18.0636C61.488 19.0206 61.1293 19.858 60.5311 20.456Z" fill="#CAA572"/>
<path d="M59.574 11.3644L48.5684 0.358914C48.0898 -0.119638 47.3721 -0.119638 46.8936 0.358914C46.415 0.837466 46.415 1.55516 46.8936 2.03372L57.8992 13.0394C58.1385 13.2787 58.3778 13.3983 58.7366 13.3983C58.9759 13.3983 59.3348 13.2787 59.5739 13.0394C60.0525 12.5607 60.0525 11.843 59.574 11.3644Z" fill="#CAA572"/>
<path d="M55.2674 15.671L44.2617 4.66531C43.7832 4.18676 43.0655 4.18676 42.5869 4.66531C42.1084 5.14386 42.1084 5.86156 42.5869 6.34011L53.5926 17.3458C53.8319 17.5851 54.0712 17.7047 54.4299 17.7047C54.7887 17.7047 55.0281 17.5851 55.2673 17.3458C55.746 16.8672 55.746 16.1495 55.2674 15.671Z" fill="#CAA572"/>
<path d="M51.0804 19.858L40.0747 8.85232C39.5962 8.37377 38.8785 8.37377 38.3999 8.85232C37.9214 9.33087 37.9214 10.0486 38.3999 10.5271L49.4056 21.5328C49.6449 21.7721 49.8841 21.8917 50.2429 21.8917C50.4822 21.8917 50.8411 21.7721 51.0803 21.5328C51.5589 21.0542 51.5589 20.3365 51.0804 19.858Z" fill="#CAA572"/>
<path d="M46.8934 24.0449L35.8877 13.0392C35.4092 12.5607 34.6915 12.5607 34.2129 13.0392C33.7344 13.5178 33.7344 14.2355 34.2129 14.714L45.2186 25.7197C45.4579 25.959 45.6971 26.0786 46.0559 26.0786C46.2952 26.0786 46.6541 25.959 46.8933 25.7197C47.3719 25.2411 47.3719 24.5233 46.8934 24.0449Z" fill="#CAA572"/>
<path d="M42.5872 28.3514L31.5816 17.3457C31.103 16.8672 30.3853 16.8672 29.9068 17.3457C29.4282 17.8243 29.4282 18.542 29.9068 19.0205L40.9124 30.0262C41.1517 30.2655 41.391 30.3851 41.7498 30.3851C42.1085 30.3851 42.348 30.2655 42.5871 30.0262C43.0657 29.5478 43.0657 28.8299 42.5872 28.3514Z" fill="#CAA572"/>
<path d="M35.8881 30.0261L27.3946 21.5326C26.916 21.0541 26.1983 21.0541 25.7198 21.5326C25.2412 22.0112 25.2412 22.7289 25.7198 23.2074L34.2133 31.7009C34.4525 31.9402 34.6918 32.0599 35.0506 32.0599C35.2899 32.0599 35.6488 31.9402 35.8879 31.7009C36.3665 31.2224 36.3665 30.5047 35.8881 30.0261Z" fill="#CAA572"/>
<path d="M31.5814 34.2132L23.0879 25.7196C22.6094 25.2411 21.8917 25.2411 21.4131 25.7196C20.9346 26.1982 20.9346 26.9159 21.4131 27.3944L29.9066 35.888C30.1459 36.1272 30.3852 36.2469 30.744 36.2469C31.1028 36.2469 31.3422 36.1272 31.5813 35.888C32.06 35.4094 32.06 34.6917 31.5814 34.2132Z" fill="#CAA572"/>
<path d="M29.9066 41.0318L18.9009 30.0262C18.4224 29.5476 17.7047 29.5476 17.2261 30.0262C16.7475 30.5047 16.7475 31.2224 17.2261 31.701L28.2318 42.7066C28.471 42.9459 28.7103 43.0655 29.0691 43.0655C29.4279 43.0655 29.6673 42.9459 29.9064 42.7066C30.3851 42.2281 30.3851 41.5104 29.9066 41.0318Z" fill="#CAA572"/>
<path d="M25.7196 45.2188L14.7139 34.2132C14.2353 33.7346 13.5176 33.7346 13.0391 34.2132C12.5605 34.6917 12.5605 35.4094 13.0391 35.888L24.0448 46.8936C24.284 47.1329 24.5233 47.2525 24.8821 47.2525C25.1214 47.2525 25.4803 47.1329 25.7194 46.8936C26.1981 46.4151 26.1981 45.6972 25.7196 45.2188Z" fill="#CAA572"/>
<path d="M21.4129 49.5252L10.4073 38.5196C9.9287 38.041 9.211 38.041 8.73245 38.5196C8.2539 38.9981 8.2539 39.7158 8.73245 40.1944L19.7381 51.2C19.9774 51.4393 20.2167 51.5589 20.5754 51.5589C20.9342 51.5589 21.2931 51.4393 21.4128 51.2C21.8913 50.7215 21.8913 50.0038 21.4129 49.5252Z" fill="#CAA572"/>
<path d="M17.2264 53.7121L6.22073 42.7064C5.74218 42.2279 5.02448 42.2279 4.54593 42.7064C4.06737 43.185 4.06737 43.9027 4.54593 44.3812L15.5516 55.3869C15.7909 55.6262 16.0301 55.7458 16.3889 55.7458C16.7477 55.7458 16.9871 55.6262 17.2263 55.3869C17.7049 54.9084 17.7049 54.1907 17.2264 53.7121Z" fill="#CAA572"/>
<path d="M13.0394 57.8991L2.03372 46.8935C1.55516 46.4149 0.837466 46.4149 0.358914 46.8935C-0.119638 47.372 -0.119638 48.0897 0.358914 48.5683L11.3646 59.5739C11.6039 59.8132 11.8431 59.9328 12.2019 59.9328C12.4412 59.9328 12.8001 59.8132 13.0393 59.5739C13.5179 59.0954 13.5179 58.3777 13.0394 57.8991Z" fill="#CAA572"/>
</g>
<defs>
<clipPath id="clip0_92_317">
<rect width="64" height="64" fill="white"/>
</clipPath>
</defs>
</svg>
