<svg width="64" height="64" viewBox="0 0 64 64" fill="none" xmlns="http://www.w3.org/2000/svg">
<g clip-path="url(#clip0_92_287)">
<path d="M28.4862 29.178C28.0602 28.752 27.4213 28.752 26.9953 29.178C26.5692 29.6039 26.5693 30.2428 26.9953 30.6688L28.5926 32.2662C28.8056 32.4792 29.0185 32.5857 29.338 32.5857C29.551 32.5857 29.8705 32.4792 30.0834 32.2662C30.5093 31.8403 30.5093 31.2013 30.0834 30.7753L28.4862 29.178Z" fill="#CAA572"/>
<path d="M62.1371 60.8053C59.026 60.8053 56.5815 58.4626 56.5815 55.4808C56.5815 50.7952 52.5815 46.9616 47.6925 46.9616C46.9369 46.9616 46.2027 47.0537 45.5011 47.2258L35.026 35.1415C34.9735 35.0576 34.9273 34.9709 34.8867 34.8826C35.9462 33.542 39.7032 28.9278 53.026 12.5657C55.5816 9.26457 57.3594 5.64385 58.4704 1.70379L58.6927 0.958403L57.4704 0.106448L49.026 4.79202L31.0674 25.3667L12.9149 4.579L5.13698 0.319468L4.47031 0L3.24805 0.958403L3.47031 1.70379C4.58138 5.64385 6.47032 9.26457 8.91473 12.5657L27.1641 34.9342C27.1244 35.024 27.0754 35.0939 27.0258 35.1415L16.5505 47.2259C15.8489 47.0539 15.1147 46.9618 14.3591 46.9618C9.4702 46.9618 5.47019 50.7954 5.47019 55.4809C5.47019 60.1665 9.4702 64.0001 14.3591 64.0001C19.2481 64.0001 23.2481 60.1665 23.2481 55.4809C23.2481 53.8 22.7312 52.2302 21.8452 50.9062L30.9814 39.6131L40.2012 50.9139C39.3186 52.2362 38.8036 53.8032 38.8036 55.4808C38.8036 60.1664 42.8036 64 47.6925 64C51.0833 64 54.045 62.1552 55.5427 59.4618C56.9112 61.5566 59.3379 62.9351 62.137 62.9351C62.6926 62.9351 63.248 62.5092 63.248 61.8703C63.248 61.2314 62.8038 60.8053 62.1371 60.8053ZM50.4704 6.38936L55.5815 3.62059C54.5815 6.38936 53.1371 8.9451 51.3592 11.2878C51.2482 11.3943 40.3592 24.7055 35.3592 30.9884C35.3591 30.9875 35.3588 30.9866 35.3585 30.9858C35.3466 30.9249 35.3338 30.864 35.3184 30.8036C35.3051 30.7496 35.2898 30.6969 35.2735 30.6446C35.2654 30.6182 35.2577 30.5918 35.2489 30.5655C35.236 30.5278 35.2219 30.491 35.2076 30.454C35.067 30.0775 34.86 29.7174 34.5813 29.391L32.5028 27.0109L50.4704 6.38936ZM6.47032 3.62059L11.4703 6.38936L32.8037 30.6689C33.137 31.2014 33.2481 31.8403 32.9148 32.3727C32.137 33.6506 32.2481 35.2479 33.2481 36.4193L43.3592 48.0266C43.1795 48.1299 42.9997 48.2452 42.82 48.3673C42.4766 48.5846 42.1501 48.8242 41.8419 49.0836C41.7921 49.1217 41.7423 49.1598 41.6925 49.198L10.6926 11.2878C8.91486 8.9451 7.47032 6.38936 6.47032 3.62059ZM14.3593 61.8703C10.6926 61.8703 7.69259 58.9951 7.69259 55.4809C7.69259 51.9668 10.6926 49.0916 14.3593 49.0916C14.8375 49.0916 15.3041 49.1416 15.7545 49.2345L16.5814 49.5175C16.9425 49.6118 17.2836 49.7442 17.6059 49.9075C18.1081 50.178 18.5701 50.509 18.9818 50.8901C19.1944 51.0929 19.3944 51.3105 19.5814 51.5408L19.7982 51.8004C20.5698 52.8428 21.0259 54.113 21.0259 55.4809C21.0259 58.9951 18.0259 61.8703 14.3593 61.8703ZM29.5816 37.9102L20.4032 49.2504C19.8993 48.8009 19.3412 48.4074 18.7399 48.0783L28.5652 36.6514L29.3317 37.5909L29.5816 37.9102ZM47.6927 61.8703C44.026 61.8703 41.026 58.9951 41.026 55.4809C41.026 54.113 41.4821 52.8428 42.2537 51.8004L42.4704 51.5409C43.2481 50.5825 44.2481 49.9435 45.4704 49.5176L46.2974 49.2346C46.7478 49.1418 47.2143 49.0917 47.6925 49.0917C51.3592 49.0917 54.3592 51.9669 54.3592 55.4811C54.3594 58.9951 51.3593 61.8703 47.6927 61.8703Z" fill="#CAA572"/>
</g>
<defs>
<clipPath id="clip0_92_287">
<rect width="64" height="64" fill="white"/>
</clipPath>
</defs>
</svg>
