<svg width="13" height="10" viewBox="0 0 13 10" fill="none" xmlns="http://www.w3.org/2000/svg">
<path d="M11.9163 1.20922C12.0749 1.07307 12.1613 0.892985 12.1572 0.706912C12.1531 0.520839 12.0588 0.343305 11.8943 0.211711C11.7297 0.0801165 11.5077 0.00473771 11.275 0.00145467C11.0423 -0.00182837 10.8172 0.0672406 10.6469 0.194111L6.19213 3.75658L1.73736 0.194111C1.5671 0.0672406 1.34191 -0.00182837 1.10923 0.00145467C0.876552 0.00473771 0.65455 0.0801165 0.489995 0.211711C0.32544 0.343305 0.231181 0.520839 0.227076 0.706912C0.222971 0.892985 0.309339 1.07307 0.467987 1.20922L4.92276 4.77169L0.467987 8.33416C0.379745 8.39992 0.308969 8.47921 0.259881 8.56731C0.210792 8.65542 0.184396 8.75053 0.182269 8.84696C0.180141 8.9434 0.202325 9.0392 0.247496 9.12863C0.292668 9.21806 0.359902 9.2993 0.445188 9.36751C0.530474 9.43571 0.632064 9.48948 0.743898 9.5256C0.855732 9.56172 0.975519 9.57946 1.09611 9.57776C1.21671 9.57606 1.33564 9.55495 1.44581 9.5157C1.55598 9.47644 1.65513 9.41984 1.73736 9.34927L6.19213 5.78681L10.6469 9.34927C10.7291 9.41984 10.8283 9.47644 10.9384 9.5157C11.0486 9.55495 11.1676 9.57606 11.2881 9.57776C11.4087 9.57946 11.5285 9.56172 11.6404 9.5256C11.7522 9.48948 11.8538 9.43571 11.9391 9.36751C12.0244 9.2993 12.0916 9.21806 12.1368 9.12863C12.1819 9.0392 12.2041 8.9434 12.202 8.84696C12.1999 8.75053 12.1735 8.65542 12.1244 8.56731C12.0753 8.47921 12.0045 8.39992 11.9163 8.33416L7.4615 4.77169L11.9163 1.20922V1.20922Z" fill="#D20000" fill-opacity="0.9"/>
</svg>
